<svg xmlns="http://www.w3.org/2000/svg" xmlns:xlink="http://www.w3.org/1999/xlink" width="100" zoomAndPan="magnify" viewBox="0 0 75 30.000001" height="40" preserveAspectRatio="xMidYMid meet" version="1.0"><defs><g/><clipPath id="b6f34edb34"><path d="M 1.210938 5.074219 L 22 5.074219 L 22 23.945312 L 1.210938 23.945312 Z M 1.210938 5.074219 " clip-rule="nonzero"/></clipPath><clipPath id="78952106b0"><path d="M 66 7 L 73.789062 7 L 73.789062 23 L 66 23 Z M 66 7 " clip-rule="nonzero"/></clipPath></defs><g clip-path="url(#b6f34edb34)"><path fill="#000000" d="M 2.339844 5.082031 C 2.539062 5.214844 4.171875 6.621094 3.96875 8.097656 C 3.777344 9.351562 2.644531 10.914062 3.394531 12.125 C 3.53125 12.339844 3.628906 12.464844 3.839844 12.457031 C 4.359375 12.476562 5.519531 11.734375 6.914062 11.398438 C 7.082031 11.355469 7.132812 11.378906 7.1875 11.253906 C 7.472656 10.648438 8.476562 10.292969 9.148438 10.152344 C 9.203125 10.136719 9.378906 10.128906 9.316406 10.019531 C 9.28125 9.96875 9.207031 9.9375 8.746094 9.769531 C 10.242188 9.726562 11.511719 10.5625 11.582031 10.582031 C 11.644531 10.5625 12.90625 9.738281 14.386719 9.769531 L 14.402344 9.757812 C 14.398438 9.765625 14.394531 9.777344 14.390625 9.785156 C 14.335938 9.792969 14.023438 9.914062 13.964844 9.941406 C 13.890625 9.972656 13.816406 10.003906 13.84375 10.085938 C 13.875 10.15625 13.976562 10.117188 14.5 10.28125 C 14.863281 10.375 15.6875 10.707031 15.960938 11.230469 C 16.082031 11.464844 15.964844 11.246094 17.179688 11.683594 C 17.992188 11.980469 18.664062 12.339844 19.136719 12.4375 C 19.515625 12.507812 19.582031 12.371094 19.691406 12.226562 C 20.476562 11.152344 19.640625 9.78125 19.25 8.386719 C 19.148438 7.914062 19.136719 7.574219 19.328125 7.03125 C 19.671875 6.117188 20.523438 5.277344 20.820312 5.085938 C 20.761719 5.242188 20.058594 6.699219 20.351562 8.015625 C 20.652344 9.417969 22.257812 10.964844 21.671875 13.183594 C 20.972656 15.828125 16.9375 14.941406 16.792969 14.992188 C 16.785156 14.996094 16.769531 15 16.769531 15.015625 C 16.765625 15.039062 16.78125 15.054688 16.800781 15.066406 C 16.914062 15.15625 19.210938 16.128906 19.289062 16.183594 C 19.242188 16.257812 17.800781 16.917969 16.613281 16.59375 C 16.574219 16.582031 16.535156 16.566406 16.492188 16.558594 C 16.335938 16.605469 16.441406 16.628906 16.726562 17.433594 C 17.097656 18.5625 17.257812 19.894531 16.136719 20.269531 C 14.886719 20.699219 14.398438 21.847656 13.789062 22.015625 C 13.734375 22.03125 13.6875 22.082031 13.691406 22.136719 C 13.6875 22.296875 13.753906 23.050781 13.265625 23.519531 C 13.070312 23.71875 12.800781 23.832031 12.527344 23.878906 C 12.488281 23.882812 12.457031 23.910156 12.429688 23.9375 L 10.855469 23.9375 C 10.703125 23.84375 9.441406 23.871094 9.46875 22.3125 C 9.46875 22.074219 9.519531 22.074219 9.320312 22 C 8.730469 21.789062 8.300781 20.71875 6.96875 20.25 C 5.714844 19.773438 6.152344 17.996094 6.695312 16.765625 C 6.722656 16.714844 6.746094 16.65625 6.730469 16.601562 C 6.695312 16.539062 6.535156 16.59375 6.515625 16.601562 C 6.027344 16.726562 5.496094 16.703125 5 16.59375 C 4.449219 16.492188 3.867188 16.195312 3.855469 16.1875 C 5.945312 15.25 6.332031 15.140625 6.308594 15.035156 C 6.222656 14.96875 5.75 15.089844 4.957031 15.09375 C 1.660156 15.0625 1.488281 13.492188 1.363281 12.324219 C 1.210938 9.542969 3.957031 8.878906 2.398438 5.222656 C 2.378906 5.175781 2.355469 5.128906 2.339844 5.082031 Z M 2.339844 5.082031 " fill-opacity="1" fill-rule="nonzero"/></g><g fill="#000000" fill-opacity="1"><g transform="translate(26.952227, 21.994279)"><g><path d="M 0.15625 -14.234375 L 7.078125 -14.234375 L 7.078125 -12.203125 L 4.734375 -12.203125 L 4.734375 0 L 2.5 0 L 2.5 -12.203125 L 0.15625 -12.203125 Z M 0.15625 -14.234375 "/></g></g></g><g fill="#000000" fill-opacity="1"><g transform="translate(34.186488, 21.994279)"><g><path d="M 2.859375 -3.265625 C 2.859375 -2.753906 2.960938 -2.394531 3.171875 -2.1875 C 3.390625 -1.976562 3.675781 -1.875 4.03125 -1.875 C 4.375 -1.875 4.648438 -1.976562 4.859375 -2.1875 C 5.078125 -2.394531 5.1875 -2.753906 5.1875 -3.265625 L 5.1875 -10.953125 C 5.1875 -11.472656 5.078125 -11.835938 4.859375 -12.046875 C 4.648438 -12.253906 4.375 -12.359375 4.03125 -12.359375 C 3.675781 -12.359375 3.390625 -12.253906 3.171875 -12.046875 C 2.960938 -11.835938 2.859375 -11.472656 2.859375 -10.953125 Z M 0.625 -10.8125 C 0.625 -11.96875 0.914062 -12.851562 1.5 -13.46875 C 2.082031 -14.082031 2.925781 -14.390625 4.03125 -14.390625 C 5.125 -14.390625 5.960938 -14.082031 6.546875 -13.46875 C 7.128906 -12.851562 7.421875 -11.96875 7.421875 -10.8125 L 7.421875 -3.421875 C 7.421875 -2.265625 7.128906 -1.378906 6.546875 -0.765625 C 5.960938 -0.148438 5.125 0.15625 4.03125 0.15625 C 2.925781 0.15625 2.082031 -0.148438 1.5 -0.765625 C 0.914062 -1.378906 0.625 -2.265625 0.625 -3.421875 Z M 0.625 -10.8125 "/></g></g></g><g fill="#000000" fill-opacity="1"><g transform="translate(42.233576, 21.994279)"><g><path d="M 0.15625 -14.234375 L 7.078125 -14.234375 L 7.078125 -12.203125 L 4.734375 -12.203125 L 4.734375 0 L 2.5 0 L 2.5 -12.203125 L 0.15625 -12.203125 Z M 0.15625 -14.234375 "/></g></g></g><g fill="#000000" fill-opacity="1"><g transform="translate(49.467837, 21.994279)"><g><path d="M 2.859375 -3.265625 C 2.859375 -2.753906 2.960938 -2.394531 3.171875 -2.1875 C 3.390625 -1.976562 3.675781 -1.875 4.03125 -1.875 C 4.375 -1.875 4.648438 -1.976562 4.859375 -2.1875 C 5.078125 -2.394531 5.1875 -2.753906 5.1875 -3.265625 L 5.1875 -10.953125 C 5.1875 -11.472656 5.078125 -11.835938 4.859375 -12.046875 C 4.648438 -12.253906 4.375 -12.359375 4.03125 -12.359375 C 3.675781 -12.359375 3.390625 -12.253906 3.171875 -12.046875 C 2.960938 -11.835938 2.859375 -11.472656 2.859375 -10.953125 Z M 0.625 -10.8125 C 0.625 -11.96875 0.914062 -12.851562 1.5 -13.46875 C 2.082031 -14.082031 2.925781 -14.390625 4.03125 -14.390625 C 5.125 -14.390625 5.960938 -14.082031 6.546875 -13.46875 C 7.128906 -12.851562 7.421875 -11.96875 7.421875 -10.8125 L 7.421875 -3.421875 C 7.421875 -2.265625 7.128906 -1.378906 6.546875 -0.765625 C 5.960938 -0.148438 5.125 0.15625 4.03125 0.15625 C 2.925781 0.15625 2.082031 -0.148438 1.5 -0.765625 C 0.914062 -1.378906 0.625 -2.265625 0.625 -3.421875 Z M 0.625 -10.8125 "/></g></g></g><g fill="#000000" fill-opacity="1"><g transform="translate(57.514925, 21.994279)"><g><path d="M 5.484375 0 C 5.460938 -0.09375 5.4375 -0.179688 5.40625 -0.265625 C 5.375 -0.347656 5.347656 -0.445312 5.328125 -0.5625 C 5.316406 -0.6875 5.304688 -0.84375 5.296875 -1.03125 C 5.285156 -1.226562 5.28125 -1.46875 5.28125 -1.75 L 5.28125 -3.984375 C 5.28125 -4.648438 5.164062 -5.117188 4.9375 -5.390625 C 4.707031 -5.660156 4.335938 -5.796875 3.828125 -5.796875 L 3.046875 -5.796875 L 3.046875 0 L 0.8125 0 L 0.8125 -14.234375 L 4.1875 -14.234375 C 5.351562 -14.234375 6.195312 -13.960938 6.71875 -13.421875 C 7.238281 -12.878906 7.5 -12.054688 7.5 -10.953125 L 7.5 -9.84375 C 7.5 -8.375 7.007812 -7.410156 6.03125 -6.953125 C 6.601562 -6.722656 6.992188 -6.347656 7.203125 -5.828125 C 7.410156 -5.304688 7.515625 -4.671875 7.515625 -3.921875 L 7.515625 -1.734375 C 7.515625 -1.378906 7.53125 -1.066406 7.5625 -0.796875 C 7.59375 -0.535156 7.660156 -0.269531 7.765625 0 Z M 3.046875 -12.203125 L 3.046875 -7.828125 L 3.921875 -7.828125 C 4.335938 -7.828125 4.664062 -7.9375 4.90625 -8.15625 C 5.144531 -8.375 5.265625 -8.765625 5.265625 -9.328125 L 5.265625 -10.734375 C 5.265625 -11.242188 5.171875 -11.613281 4.984375 -11.84375 C 4.804688 -12.082031 4.519531 -12.203125 4.125 -12.203125 Z M 3.046875 -12.203125 "/></g></g></g><g clip-path="url(#78952106b0)"><g fill="#000000" fill-opacity="1"><g transform="translate(65.683938, 21.994279)"><g><path d="M 2.859375 -3.265625 C 2.859375 -2.753906 2.960938 -2.394531 3.171875 -2.1875 C 3.390625 -1.976562 3.675781 -1.875 4.03125 -1.875 C 4.375 -1.875 4.648438 -1.976562 4.859375 -2.1875 C 5.078125 -2.394531 5.1875 -2.753906 5.1875 -3.265625 L 5.1875 -10.953125 C 5.1875 -11.472656 5.078125 -11.835938 4.859375 -12.046875 C 4.648438 -12.253906 4.375 -12.359375 4.03125 -12.359375 C 3.675781 -12.359375 3.390625 -12.253906 3.171875 -12.046875 C 2.960938 -11.835938 2.859375 -11.472656 2.859375 -10.953125 Z M 0.625 -10.8125 C 0.625 -11.96875 0.914062 -12.851562 1.5 -13.46875 C 2.082031 -14.082031 2.925781 -14.390625 4.03125 -14.390625 C 5.125 -14.390625 5.960938 -14.082031 6.546875 -13.46875 C 7.128906 -12.851562 7.421875 -11.96875 7.421875 -10.8125 L 7.421875 -3.421875 C 7.421875 -2.265625 7.128906 -1.378906 6.546875 -0.765625 C 5.960938 -0.148438 5.125 0.15625 4.03125 0.15625 C 2.925781 0.15625 2.082031 -0.148438 1.5 -0.765625 C 0.914062 -1.378906 0.625 -2.265625 0.625 -3.421875 Z M 0.625 -10.8125 "/></g></g></g></g></svg>