<svg xmlns="http://www.w3.org/2000/svg" xmlns:xlink="http://www.w3.org/1999/xlink" width="46" zoomAndPan="magnify" viewBox="0 0 34.5 41.25" height="55" preserveAspectRatio="xMidYMid meet" version="1.0"><defs><clipPath id="38c7c82c10"><path d="M 0.0625 5.101562 L 33.945312 5.101562 L 33.945312 35.742188 L 0.0625 35.742188 Z M 0.0625 5.101562 " clip-rule="nonzero"/></clipPath></defs><g clip-path="url(#38c7c82c10)"><path fill="#ffde59" d="M 1.90625 5.105469 C 2.234375 5.320312 4.898438 7.605469 4.566406 10.007812 C 4.253906 12.039062 2.40625 14.582031 3.632812 16.542969 C 3.851562 16.898438 4.015625 17.097656 4.355469 17.085938 C 5.210938 17.117188 7.101562 15.910156 9.378906 15.367188 C 9.652344 15.296875 9.738281 15.335938 9.828125 15.128906 C 10.292969 14.144531 11.933594 13.574219 13.027344 13.34375 C 13.117188 13.320312 13.40625 13.304688 13.304688 13.125 C 13.242188 13.042969 13.121094 12.996094 12.367188 12.71875 C 14.8125 12.652344 16.886719 14.007812 17 14.039062 C 17.101562 14.007812 19.167969 12.667969 21.585938 12.71875 L 21.609375 12.699219 C 21.601562 12.710938 21.59375 12.734375 21.585938 12.746094 C 21.5 12.757812 20.992188 12.957031 20.890625 13 C 20.773438 13.050781 20.648438 13.105469 20.695312 13.234375 C 20.75 13.347656 20.914062 13.285156 21.769531 13.550781 C 22.363281 13.707031 23.707031 14.242188 24.152344 15.09375 C 24.351562 15.472656 24.160156 15.117188 26.144531 15.832031 C 27.472656 16.308594 28.566406 16.894531 29.339844 17.050781 C 29.957031 17.171875 30.066406 16.949219 30.25 16.714844 C 31.527344 14.96875 30.160156 12.738281 29.523438 10.472656 C 29.359375 9.707031 29.339844 9.15625 29.652344 8.273438 C 30.210938 6.785156 31.605469 5.421875 32.089844 5.109375 C 31.992188 5.367188 30.84375 7.730469 31.320312 9.875 C 31.816406 12.148438 34.4375 14.660156 33.480469 18.265625 C 32.339844 22.5625 25.75 21.121094 25.515625 21.207031 C 25.496094 21.214844 25.472656 21.21875 25.476562 21.242188 C 25.464844 21.28125 25.496094 21.308594 25.523438 21.328125 C 25.710938 21.46875 29.460938 23.050781 29.585938 23.144531 C 29.511719 23.261719 27.15625 24.335938 25.21875 23.804688 C 25.152344 23.789062 25.089844 23.761719 25.019531 23.75 C 24.765625 23.828125 24.9375 23.863281 25.40625 25.175781 C 26.007812 27.003906 26.269531 29.171875 24.441406 29.78125 C 22.398438 30.472656 21.601562 32.34375 20.609375 32.617188 C 20.519531 32.640625 20.441406 32.722656 20.445312 32.816406 C 20.441406 33.074219 20.550781 34.300781 19.753906 35.058594 C 19.433594 35.382812 18.992188 35.5625 18.546875 35.640625 C 18.480469 35.648438 18.429688 35.695312 18.390625 35.738281 L 15.8125 35.738281 C 15.570312 35.585938 13.507812 35.628906 13.550781 33.097656 C 13.546875 32.710938 13.632812 32.710938 13.308594 32.59375 C 12.34375 32.25 11.640625 30.511719 9.46875 29.75 C 7.421875 28.972656 8.136719 26.089844 9.023438 24.085938 C 9.066406 24.003906 9.105469 23.910156 9.078125 23.816406 C 9.019531 23.71875 8.761719 23.808594 8.730469 23.816406 C 7.929688 24.023438 7.0625 23.984375 6.25 23.804688 C 5.355469 23.640625 4.402344 23.15625 4.382812 23.148438 C 7.796875 21.621094 8.429688 21.449219 8.390625 21.273438 C 8.246094 21.167969 7.476562 21.363281 6.183594 21.375 C 0.796875 21.320312 0.519531 18.765625 0.3125 16.875 C 0.0625 12.351562 4.546875 11.273438 2.003906 5.332031 C 1.972656 5.257812 1.933594 5.183594 1.90625 5.105469 Z M 1.90625 5.105469 " fill-opacity="1" fill-rule="nonzero"/></g></svg>